# xmcd
#
# Track frame offsets: 
#        150
#        13428
#        24874
#        37475
#        48902
#        61412
#        75446
#        87129
#        101706
#        116589
#        130744
#        142609
#        154788
#        166633
#        182741
#        195233
#        208751
#        220420
#        231423
#        245809
#
# Disc length: 3457 seconds
#
# Revision: 0
# Processed by: cddbd v1.5.2PL0 Copyright (c) Steve Scherf et al.
# Submitted via: ExactAudioCopyFreeDBPlugin 1.0
#
DISCID=0f0d7f14
DTITLE=Lacy J. Dalton - Lacy J. Dalton and Hard Times
DYEAR=2013
DGENRE=Country
TTITLE0=Crazy Blue Eyes
TTITLE1=High Like An Angel
TTITLE2=Honkey Tonk Man
TTITLE3=Carolina Come On
TTITLE4=Beer Drinkin' Song
TTITLE5=Tennessee Waltz
TTITLE6=Late Night Kind Of Lonesome
TTITLE7=Losing Kind Of Love
TTITLE8=Are There Any Cowboys Left (In the Good Ol' USA)?
TTITLE9=Turn My Head Around
TTITLE10=Hard Times
TTITLE11=Hillbilly Girl With The Blues
TTITLE12=China Doll
TTITLE13=Old Soldier
TTITLE14=Ain't Nobody Who Could Do It Like My Daddy Could
TTITLE15=You Can't Fool Love
TTITLE16=Wide Eyed And Willing
TTITLE17=Girls From Santa Cruz
TTITLE18=Whisper
TTITLE19=Me 'N' You
EXTD=
EXTT0=
EXTT1=
EXTT2=
EXTT3=
EXTT4=
EXTT5=
EXTT6=
EXTT7=
EXTT8=
EXTT9=
EXTT10=
EXTT11=
EXTT12=
EXTT13=
EXTT14=
EXTT15=
EXTT16=
EXTT17=
EXTT18=
EXTT19=
PLAYORDER=
